<svg width="4" height="4" viewBox="0 0 4 4" fill="none" xmlns="http://www.w3.org/2000/svg">
<path d="M2.94334 1.86667C2.90501 1.81667 2.85834 1.77333 2.81501 1.73C2.70334 1.63 2.57667 1.55833 2.47001 1.45333C2.22167 1.21 2.16667 0.808333 2.32501 0.5C2.16667 0.538333 2.02834 0.625 1.91001 0.72C1.47834 1.06667 1.30834 1.67833 1.51167 2.20333C1.51834 2.22 1.52501 2.23667 1.52501 2.25833C1.52501 2.295 1.50001 2.32833 1.46667 2.34167C1.42834 2.35833 1.38834 2.34833 1.35667 2.32167C1.34722 2.31374 1.3393 2.30414 1.33334 2.29333C1.14501 2.055 1.11501 1.71333 1.24167 1.44C0.963342 1.66667 0.811675 2.05 0.833342 2.41167C0.843342 2.495 0.853342 2.57833 0.881675 2.66167C0.905008 2.76167 0.950008 2.86167 1.00001 2.95C1.18001 3.23833 1.49167 3.445 1.82667 3.48667C2.18334 3.53167 2.56501 3.46667 2.83834 3.22C3.14334 2.94333 3.25001 2.5 3.09334 2.12L3.07167 2.07667C3.03667 2 2.94334 1.86667 2.94334 1.86667ZM2.41667 2.91667C2.37001 2.95667 2.29334 3 2.23334 3.01667C2.04667 3.08333 1.86001 2.99 1.75001 2.88C1.94834 2.83333 2.06667 2.68667 2.10167 2.53833C2.13001 2.405 2.07667 2.295 2.05501 2.16667C2.03501 2.04333 2.03834 1.93833 2.08334 1.82333C2.11501 1.88667 2.14834 1.95 2.18834 2C2.31667 2.16667 2.51834 2.24 2.56167 2.46667C2.56834 2.49 2.57167 2.51333 2.57167 2.53833C2.57667 2.675 2.51667 2.825 2.41667 2.91667Z" fill="white"/>
<circle cx="2" cy="2" r="1.875" stroke="white" stroke-width="0.25"/>
</svg>
