<svg width="4" height="4" viewBox="0 0 4 4" fill="none" xmlns="http://www.w3.org/2000/svg">
<g clip-path="url(#clip0_578_330)">
<path d="M3.73181 0.999758C3.37524 0.38257 2.71118 0.000125 1.99659 0C1.64746 0.000125 1.30286 0.0925312 0.999516 0.267703C0.679446 0.452516 0.428961 0.713867 0.259282 1.0149C0.0894771 1.31604 5.07582e-07 1.65711 5.07582e-07 2.00293C-0.00024168 2.34192 0.0861802 2.68591 0.267579 2.99987C0.624149 3.61694 1.28796 3.99939 2.00269 3.99951C2.35193 3.99939 2.69629 3.90698 2.99963 3.73181C3.23023 3.59876 3.42871 3.42407 3.58667 3.21814C3.74439 3.01221 3.86182 2.77502 3.93079 2.51721C3.97693 2.34473 4 2.16943 4 1.99536C4 1.6488 3.90894 1.30664 3.73181 0.999758ZM3.66577 2.44617C3.60584 2.66968 3.50464 2.87391 3.36866 3.05127C3.23291 3.22852 3.06214 3.37891 2.86243 3.49426C2.60095 3.64526 2.30334 3.7251 2.00269 3.7251C1.38648 3.72534 0.811766 3.39405 0.505125 2.86267C0.348508 2.59131 0.274415 2.29553 0.27429 2.00293C0.27429 1.70447 0.351805 1.40955 0.498289 1.14966C0.644774 0.889765 0.86011 0.665156 1.13672 0.505367C1.39831 0.354242 1.69592 0.274289 1.99659 0.274406C2.6128 0.274172 3.1875 0.605469 3.49414 1.13697C3.64746 1.40272 3.72546 1.69666 3.72546 1.99537C3.72546 2.14551 3.70581 2.29676 3.66577 2.44617Z" fill="white"/>
<path d="M1.81408 2.10989C1.85254 2.17654 1.92419 2.21792 2.00122 2.21792C2.03893 2.21792 2.07629 2.20791 2.109 2.18899C2.21228 2.12942 2.2478 1.99698 2.18823 1.89383C2.14965 1.82718 2.078 1.7858 2.00086 1.7858C1.96325 1.7858 1.9259 1.7958 1.89307 1.81473C1.78991 1.87442 1.75451 2.00674 1.81408 2.10989Z" fill="white"/>
<path d="M1.80248 1.66159L1.26794 0.735687C0.80139 1.0051 0.539914 1.49509 0.539062 1.99875H1.60803C1.6084 1.86435 1.67798 1.73349 1.80248 1.66159Z" fill="white"/>
<path d="M2.72464 0.735687L2.19009 1.66147C2.24832 1.69516 2.29801 1.74374 2.33267 1.8038C2.36734 1.86398 2.38504 1.93076 2.38467 1.99851H3.45364C3.45413 1.75034 3.39138 1.49912 3.25857 1.26926C3.12601 1.0394 2.93961 0.859351 2.72464 0.735687Z" fill="white"/>
<path d="M2.19324 2.33605C2.13428 2.37023 2.0669 2.3883 1.99878 2.3883C1.92945 2.3883 1.8623 2.36962 1.80408 2.33594L1.26953 3.26172C1.70605 3.51282 2.26135 3.53149 2.72791 3.26209L2.19348 2.33606H2.19324V2.33605Z" fill="white"/>
</g>
<defs>
<clipPath id="clip0_578_330">
<rect width="4" height="4" fill="white"/>
</clipPath>
</defs>
</svg>
